<svg width="380" height="380" viewBox="0 0 380 380" fill="none" xmlns="http://www.w3.org/2000/svg">
<path d="M380 190C378.192 264.926 378.952 322.319 349.705 349.705C322.319 378.952 264.926 378.192 190 380C115.074 378.192 57.6814 378.952 30.2952 349.705C1.04828 322.319 1.80828 264.926 0 190C1.80828 115.074 1.04828 57.6814 30.2952 30.2952C57.6814 1.04828 115.074 1.80828 190 0C264.926 1.80828 322.319 1.04828 349.705 30.2952C378.952 57.6814 378.192 115.074 380 190Z" fill="black"/>
<path fill-rule="evenodd" clip-rule="evenodd" d="M349.705 349.705C377.012 324.135 378.161 272.407 379.665 204.673C379.771 199.862 379.88 194.969 380 190C379.88 185.03 379.771 180.138 379.665 175.327C378.161 107.593 377.012 55.865 349.705 30.2952C324.135 2.98811 272.407 1.83947 204.674 0.335418C199.862 0.228574 194.97 0.119936 190 0C185.03 0.119936 180.138 0.228574 175.326 0.335418C107.593 1.83947 55.865 2.98811 30.2952 30.2952C2.98811 55.865 1.83947 107.593 0.335418 175.326C0.228574 180.138 0.119936 185.03 0 190C0.119936 194.97 0.228574 199.862 0.335418 204.674C1.83947 272.407 2.98811 324.135 30.2952 349.705C55.865 377.012 107.593 378.161 175.327 379.665C180.138 379.771 185.03 379.88 190 380C194.969 379.88 199.862 379.771 204.674 379.665C272.407 378.161 324.135 377.012 349.705 349.705ZM190 362.93C185.107 362.813 180.318 362.706 175.633 362.601C144.022 361.895 117.122 361.294 94.6207 358.233C68.5296 354.683 52.3027 348.241 42.7514 338.041L42.3682 337.632L41.9589 337.249C31.7588 327.697 25.3165 311.47 21.767 285.379C18.7058 262.878 18.1049 235.978 17.3988 204.367C17.2942 199.682 17.1872 194.893 17.0696 190C17.1872 185.107 17.2942 180.318 17.3988 175.633C18.1049 144.022 18.7058 117.122 21.767 94.6207C25.3165 68.5296 31.7588 52.3027 41.9589 42.7514L42.3682 42.3682L42.7514 41.9589C52.3027 31.7588 68.5296 25.3165 94.6207 21.767C117.122 18.7058 144.022 18.1049 175.633 17.3988C180.318 17.2942 185.107 17.1872 190 17.0696C194.893 17.1872 199.682 17.2942 204.367 17.3988C235.978 18.1049 262.878 18.7058 285.379 21.767C311.47 25.3165 327.697 31.7588 337.249 41.9589L337.632 42.3682L338.041 42.7514C348.241 52.3027 354.683 68.5296 358.233 94.6207C361.294 117.122 361.895 144.022 362.601 175.633C362.706 180.318 362.813 185.107 362.93 190C362.813 194.893 362.706 199.682 362.601 204.367C361.895 235.978 361.294 262.878 358.233 285.379C354.683 311.47 348.241 327.697 338.041 337.249L337.632 337.632L337.249 338.041C327.697 348.241 311.47 354.683 285.379 358.233C262.878 361.294 235.978 361.895 204.367 362.601C199.682 362.706 194.893 362.813 190 362.93Z" fill="url(#paint0_linear_6688_4767)"/>
<path d="M72.0761 250.975V250.814C75.9312 245.674 76.4131 242.301 76.4131 230.575V155.4C76.4131 145.441 74.8068 140.14 71.2729 137.249V136.927L86.6935 131.626H86.8541V230.575C86.8541 242.301 87.336 245.674 91.3518 250.814V250.975H72.0761Z" fill="white"/>
<path d="M162.781 244.55C165.19 244.55 166.957 243.907 168.403 243.265C167.118 249.208 163.423 252.742 157.32 252.742C151.055 252.742 146.557 248.566 146.557 239.57V238.606C140.775 246.156 132.743 252.742 122.463 252.742C112.182 252.742 104.954 246.477 104.954 236.197C104.954 218.688 125.354 213.709 146.557 209.854V199.734C146.557 186.241 140.453 180.458 129.691 180.458C118.768 180.458 111.7 187.205 108.488 191.381C109.13 183.51 116.519 172.909 132.904 172.909C147.682 172.909 156.838 181.743 156.838 199.091V237.161C156.838 241.016 157.801 244.55 162.781 244.55ZM127.442 244.55C134.51 244.55 140.614 241.016 146.557 236.036V212.745C128.888 216.761 114.913 221.098 114.913 233.145C114.913 240.855 120.374 244.55 127.442 244.55Z" fill="white"/>
<path d="M216.646 172.748C237.368 172.748 249.415 189.935 249.415 210.978C249.415 235.554 233.994 252.903 210.221 252.903C201.868 252.903 192.23 251.457 182.753 246.638V155.4C182.753 145.441 181.147 140.14 177.613 137.249V136.927L193.033 131.626H193.194V183.51C198.495 178.049 205.723 172.748 216.646 172.748ZM210.221 248.726C226.766 248.726 238.331 233.627 238.331 212.745C238.331 194.594 228.693 179.334 211.506 179.334C202.993 179.334 198.816 181.583 193.194 185.759V242.943C197.531 246.477 202.35 248.726 210.221 248.726Z" fill="white"/>
<path d="M283.18 252.742C273.542 252.742 266.796 249.529 263.101 246.959L262.619 235.073H262.78C269.205 243.425 276.755 247.923 285.107 247.923C294.745 247.923 299.886 242.14 299.886 233.306C299.886 224.31 294.585 221.419 283.501 215.315C272.418 209.05 265.671 204.713 265.671 193.951C265.671 181.101 275.148 172.748 291.051 172.748C297.958 172.748 303.419 174.836 306.793 176.282L307.114 188.008H306.793C301.492 181.583 295.709 177.406 288.159 177.406C280.449 177.406 274.666 181.583 274.666 189.935C274.666 197.324 279.164 200.216 289.284 205.677C302.937 213.066 309.363 217.564 309.363 228.969C309.363 243.265 299.243 252.742 283.18 252.742Z" fill="white"/>
<defs>
<linearGradient id="paint0_linear_6688_4767" x1="190" y1="0" x2="190" y2="380" gradientUnits="userSpaceOnUse">
<stop stop-color="#8AFFC1"/>
<stop offset="1" stop-color="#59BEC4"/>
</linearGradient>
</defs>
</svg>
